<svg width="44" height="39" viewBox="0 0 44 39" fill="none" xmlns="http://www.w3.org/2000/svg">
<g id="Group 33058">
<path id="Subtract" d="M9.00116 10.092C3.69078 12.4988 0 17.8194 0 23.9963V38.5263H15.752C21.3048 38.5263 26.0973 35.5295 28.6912 31.0752V20.3939C28.6912 19.2461 27.3372 18.6223 26.4518 19.3623L22.1279 22.976L17.8039 19.3623C16.9185 18.6223 15.5645 19.2461 15.5645 20.3939V29.7258C15.5645 30.4711 14.9549 31.0752 14.2029 31.0752H10.3628C9.61077 31.0752 9.00116 30.4711 9.00116 29.7258V10.092Z" fill="#393948"/>
<path id="Subtract_2" d="M28.9285 0C37.2523 0 44.0001 6.98123 44.0001 15.593V31.186H35.1777V10.0967C35.1777 9.35145 34.568 8.7473 33.8161 8.7473H29.4977L22.3117 15.0021L15.3089 8.90677C17.7285 3.64058 22.9175 0 28.9285 0Z" fill="#5257D6"/>
</g>
</svg>
